Coordinates
version=1
nRows=11
nColumns=63
inDegrees=yes

Units are S.I. units (second, meters, Newtons, ...)
If the header above contains a line with 'inDegrees', this indicates whether rotational values are in degrees (yes) or radians (no).

endheader
time	pelvis_tilt	pelvis_list	pelvis_rotation	pelvis_tx	pelvis_ty	pelvis_tz	hip_flexion_r	hip_adduction_r	hip_rotation_r	knee_angle_r	knee_angle_r_beta	ankle_angle_r	subtalar_angle_r	mtp_angle_r	hip_flexion_l	hip_adduction_l	hip_rotation_l	knee_angle_l	knee_angle_l_beta	ankle_angle_l	subtalar_angle_l	mtp_angle_l	L5_S1_Flex_Ext	L5_S1_Lat_Bending	L5_S1_axial_rotation	L4_L5_Flex_Ext	L4_L5_Lat_Bending	L4_L5_axial_rotation	L3_L4_Flex_Ext	L3_L4_Lat_Bending	L3_L4_axial_rotation	L2_L3_Flex_Ext	L2_L3_Lat_Bending	L2_L3_axial_rotation	L1_L2_Flex_Ext	L1_L2_Lat_Bending	L1_L2_axial_rotation	L1_T12_Flex_Ext	L1_T12_Lat_Bending	L1_T12_axial_rotation	Abs_r3	Abs_r2	Abs_r1	Abs_t1	Abs_t2	neck_flexion	neck_bending	neck_rotation	arm_flex_r	arm_add_r	arm_rot_r	elbow_flex_r	pro_sup_r	wrist_flex_r	wrist_dev_r	arm_flex_l	arm_add_l	arm_rot_l	elbow_flex_l	pro_sup_l	wrist_flex_l	wrist_dev_l
5.683333	2.350925	-1.595770	89.662479	0.171778	1.008982	0.538953	6.369926	0.358659	-19.508176	14.924557	0.260483	18.649356	1.459080	0.000000	4.747958	-2.182845	-7.870188	10.110066	0.176454	18.242099	-7.319722	0.000000	0.224414	0.550331	-3.748819	0.416760	0.731940	-3.983120	0.368690	1.338074	-3.983120	0.256483	1.338074	-3.280217	0.208391	1.122235	-3.045916	0.128230	0.852462	-2.811614	1.602970	6.225452	-20.849808	0.000000	0.000000	12.542432	-6.483157	-22.047957	5.712177	-11.086508	45.469477	55.471436	66.243775	9.756607	12.128447	-4.676215	-9.963200	26.111886	60.427193	62.108569	7.169675	9.744619
5.700000	2.349074	-1.567011	89.515180	0.172836	1.008962	0.539158	6.356325	0.456179	-19.124138	14.914253	0.260303	18.624958	1.126331	0.000000	4.707432	-2.210514	-7.591125	10.014287	0.174782	18.462478	-7.326466	0.000000	0.223908	0.539088	-3.717679	0.415820	0.716987	-3.950034	0.367858	1.310738	-3.950034	0.255904	1.310738	-3.252969	0.207921	1.099308	-3.020614	0.127941	0.835047	-2.788259	1.599353	6.098268	-20.676615	0.000000	0.000000	12.409671	-6.409133	-21.890663	6.281774	-10.996510	46.005957	55.167338	65.924089	10.719241	13.634803	-4.653509	-10.111257	25.906791	60.549178	62.836092	7.748195	10.353112
5.716667	2.336333	-1.530759	89.380002	0.173893	1.008904	0.539376	6.320989	0.539317	-18.807857	14.875561	0.259628	18.641676	0.970609	0.000000	4.631671	-2.226484	-7.356767	9.871487	0.172290	18.690742	-7.281829	0.000000	0.223871	0.527207	-3.688042	0.415750	0.701185	-3.918545	0.367797	1.281851	-3.918545	0.255862	1.281851	-3.227037	0.207886	1.075080	-2.996534	0.127920	0.816643	-2.766032	1.599086	5.963870	-20.511784	0.000000	0.000000	12.321137	-6.308353	-21.643656	6.893407	-10.900549	46.570905	54.854643	65.721961	11.821466	15.211402	-4.604519	-10.273642	25.687314	60.656055	63.748290	8.528202	10.977700
5.733333	2.308591	-1.484129	89.248090	0.174916	1.008799	0.539627	6.269604	0.602602	-18.526358	14.821505	0.258684	18.711756	0.956605	0.000000	4.517744	-2.222641	-7.151269	9.683368	0.169007	18.901336	-7.252298	0.000000	0.223544	0.514922	-3.663230	0.415144	0.684846	-3.892182	0.367261	1.251981	-3.892182	0.255489	1.251981	-3.205326	0.207583	1.050028	-2.976374	0.127733	0.797614	-2.747422	1.596755	5.824897	-20.373786	0.000000	0.000000	12.266982	-6.202266	-21.319201	7.574544	-10.816194	47.281803	54.554456	65.158706	12.906382	16.895695	-4.553327	-10.450027	25.451801	60.778825	64.899410	9.298930	11.509205
5.750000	2.271390	-1.441575	89.142498	0.175886	1.008628	0.539935	6.221820	0.649711	-18.282373	14.762245	0.257650	18.838402	1.056993	0.000000	4.394256	-2.208045	-6.997160	9.470027	0.165283	19.081936	-7.205789	0.000000	0.224668	0.502651	-3.643293	0.417231	0.668526	-3.870999	0.369107	1.222147	-3.870999	0.256773	1.222147	-3.187881	0.208627	1.025007	-2.960176	0.128375	0.778607	-2.732470	1.604782	5.686093	-20.262902	0.000000	0.000000	12.237992	-6.113950	-20.993777	8.268927	-10.738940	48.051918	54.291606	64.061085	13.825668	18.686693	-4.499343	-10.648057	25.248709	60.933464	66.146082	9.921201	11.911779
5.766667	2.219800	-1.407664	89.021089	0.176806	1.008393	0.540319	6.190747	0.677436	-18.023506	14.702690	0.256610	19.002945	1.225151	0.000000	4.260034	-2.171713	-6.844474	9.221956	0.160953	19.180790	-7.268699	0.000000	0.226157	0.490726	-3.625162	0.419995	0.652666	-3.851735	0.371553	1.193152	-3.851735	0.258474	1.193152	-3.172017	0.210009	1.000689	-2.945444	0.129226	0.760135	-2.718872	1.615414	5.551196	-20.162065	0.000000	0.000000	12.235463	-6.066295	-20.696828	9.030302	-10.700751	49.017968	54.037630	62.687113	14.622855	20.249176	-4.471099	-10.836982	24.993078	61.131340	67.698849	10.346140	12.131716
5.783333	2.158531	-1.382590	88.959462	0.177610	1.008097	0.540771	6.167251	0.683912	-17.818122	14.640413	0.255523	19.202781	1.443031	0.000000	4.135336	-2.125089	-6.735153	8.968936	0.156537	19.227225	-7.282359	0.000000	0.227712	0.478900	-3.612631	0.422883	0.636937	-3.838420	0.374108	1.164397	-3.838420	0.260252	1.164397	-3.161052	0.211453	0.976572	-2.935262	0.130114	0.741816	-2.709473	1.626522	5.417410	-20.092368	0.000000	0.000000	12.275083	-5.983235	-20.390543	9.722690	-10.671877	49.896666	53.847118	60.837382	15.158831	21.785965	-4.434400	-11.036496	24.790438	61.358919	69.229031	10.567395	12.180791
5.800000	2.083972	-1.388597	88.917412	0.178330	1.007725	0.541280	6.177064	0.667489	-17.630647	14.577137	0.254419	19.424920	1.699052	0.000000	4.039984	-2.048681	-6.492564	8.702405	0.151886	19.110157	-7.606033	0.000000	0.230778	0.467004	-3.603898	0.428578	0.621115	-3.829142	0.379145	1.135473	-3.829142	0.263756	1.135473	-3.153411	0.214301	0.952314	-2.928168	0.131867	0.723389	-2.702924	1.648425	5.282840	-20.043802	0.000000	0.000000	12.356015	-5.901851	-20.140082	10.396815	-10.682605	50.851625	53.694207	58.740956	15.390844	22.959460	-4.439365	-11.212559	24.523629	61.612115	71.049203	10.642455	11.962847
5.816667	2.004530	-1.423490	88.919448	0.178950	1.007284	0.541821	6.213084	0.633488	-17.497324	14.515776	0.253348	19.665199	1.980103	0.000000	3.982596	-1.966291	-6.288064	8.446964	0.147427	18.922596	-7.917597	0.000000	0.234692	0.455599	-3.596645	0.435847	0.605946	-3.821435	0.385576	1.107743	-3.821435	0.268230	1.107743	-3.147064	0.217935	0.929057	-2.922274	0.134103	0.705723	-2.697483	1.676382	5.153825	-20.003458	0.000000	0.000000	12.470305	-5.786334	-19.930674	10.992290	-10.723912	51.738843	53.600236	56.371740	15.369568	23.911872	-4.440921	-11.398069	24.360052	61.880437	72.588130	10.480963	11.548737
5.833333	1.920168	-1.489748	88.964246	0.179468	1.006778	0.542381	6.279019	0.580380	-17.417712	14.466832	0.252494	19.912854	2.253524	0.000000	3.965208	-1.874940	-6.080140	8.196497	0.143056	18.667770	-8.254771	0.000000	0.239152	0.444814	-3.587776	0.444130	0.591603	-3.812012	0.392903	1.081521	-3.812012	0.273327	1.081521	-3.139304	0.222077	0.907065	-2.915068	0.136652	0.689017	-2.690832	1.708242	5.031827	-19.954131	0.000000	0.000000	12.609914	-5.635455	-19.743824	11.486189	-10.803722	52.508349	53.603365	53.814273	15.035742	24.715611	-4.419774	-11.590508	24.324092	62.148577	73.912159	10.122681	10.992171
5.850000	1.834589	-1.586367	89.063092	0.179896	1.006219	0.542949	6.369643	0.511511	-17.419413	14.427553	0.251808	20.168935	2.528083	0.000000	3.997823	-1.782408	-5.899482	7.969299	0.139091	18.413053	-8.508573	0.000000	0.243821	0.434288	-3.576125	0.452801	0.577603	-3.799633	0.400574	1.055928	-3.799633	0.278663	1.055928	-3.129110	0.226412	0.885600	-2.905602	0.139319	0.672712	-2.682094	1.741591	4.912752	-19.889336	0.000000	0.000000	12.767461	-5.445000	-19.604461	11.848354	-10.900176	53.045911	53.704097	51.311555	14.524816	25.470018	-4.351541	-11.796224	24.458179	62.403171	74.652110	9.638412	10.479542
